<!--?xml version="1.0" standalone="no"?-->
              <svg id="sw-js-blob-svg" viewBox="0 0 100 100" xmlns="http://www.w3.org/2000/svg" version="1.1">
                    <defs> 
                        <linearGradient id="sw-gradient" x1="0" x2="1" y1="1" y2="0">
                            <stop id="stop1" stop-color="rgba(52, 168, 83, 1)" offset="0%"></stop>
                            <stop id="stop2" stop-color="rgba(146.896, 203.962, 162.147, 1)" offset="100%"></stop>
                        </linearGradient>
                    </defs>
                <path fill="url(#sw-gradient)" d="M17.6,-22C24,-15.6,31.1,-11.2,33.1,-5C35.2,1.1,32.1,9,27.8,15.7C23.5,22.3,17.8,27.9,10.2,32.6C2.6,37.4,-6.9,41.4,-11.6,37.3C-16.2,33.2,-16,21.1,-20.2,12.4C-24.4,3.6,-33.1,-1.9,-35.2,-9C-37.3,-16.1,-32.8,-24.9,-25.8,-31.1C-18.8,-37.3,-9.4,-41,-1.9,-38.7C5.6,-36.5,11.2,-28.3,17.6,-22Z" width="100%" height="100%" transform="translate(50 50)" style="transition: all 0.3s ease 0s;" stroke-width="0"></path>
              </svg>