<!--?xml version="1.0" standalone="no"?-->
              <svg id="sw-js-blob-svg" viewBox="0 0 100 100" xmlns="http://www.w3.org/2000/svg" version="1.1">
                    <defs> 
                        <linearGradient id="sw-gradient" x1="0" x2="1" y1="1" y2="0">
                            <stop id="stop1" stop-color="rgba(251, 188, 5, 1)" offset="0%"></stop>
                            <stop id="stop2" stop-color="rgba(255, 212.058, 141.179, 1)" offset="100%"></stop>
                        </linearGradient>
                    </defs>
                <path fill="url(#sw-gradient)" d="M18.9,-24.2C23.3,-18.8,24.8,-11.7,25.7,-4.8C26.7,2.2,27.1,9,25.1,16.3C23,23.6,18.6,31.3,12,34.1C5.5,37,-3.3,35,-9.4,30.7C-15.5,26.3,-19.1,19.7,-25,12.8C-30.9,5.9,-39.2,-1.2,-38.8,-7.5C-38.5,-13.7,-29.5,-19.1,-21.6,-23.8C-13.7,-28.5,-6.8,-32.5,0.2,-32.8C7.3,-33.1,14.5,-29.5,18.9,-24.2Z" width="100%" height="100%" transform="translate(50 50)" style="transition: all 0.3s ease 0s;" stroke-width="0"></path>
              </svg>