<!--?xml version="1.0" standalone="no"?-->
              <svg id="sw-js-blob-svg" viewBox="0 0 100 100" xmlns="http://www.w3.org/2000/svg" version="1.1">
                    <defs> 
                        <linearGradient id="sw-gradient" x1="0" x2="1" y1="1" y2="0">
                            <stop id="stop1" stop-color="rgba(52, 168, 83, 1)" offset="0%"></stop>
                            <stop id="stop2" stop-color="rgba(168.284, 230.942, 185.029, 1)" offset="100%"></stop>
                        </linearGradient>
                    </defs>
                <path fill="url(#sw-gradient)" d="M22.8,-30.2C27.2,-23.6,26.6,-14.1,27.6,-5.3C28.7,3.5,31.3,11.5,29.3,18.8C27.4,26.1,20.8,32.6,13.4,34.2C5.9,35.8,-2.4,32.6,-11.8,30.1C-21.3,27.7,-31.9,26.1,-36.7,20.1C-41.5,14,-40.4,3.6,-38,-6.1C-35.6,-15.7,-31.8,-24.5,-25.2,-30.8C-18.6,-37.1,-9.3,-40.8,0,-40.8C9.2,-40.7,18.5,-36.9,22.8,-30.2Z" width="100%" height="100%" transform="translate(50 50)" style="transition: all 0.3s ease 0s;" stroke-width="0"></path>
              </svg>