<!--?xml version="1.0" standalone="no"?-->
              <svg id="sw-js-blob-svg" viewBox="0 0 100 100" xmlns="http://www.w3.org/2000/svg" version="1.1">
                    <defs> 
                        <linearGradient id="sw-gradient" x1="0" x2="1" y1="1" y2="0">
                            <stop id="stop1" stop-color="rgba(234, 67, 53, 1)" offset="0%"></stop>
                            <stop id="stop2" stop-color="rgba(255, 124.077, 113.101, 1)" offset="100%"></stop>
                        </linearGradient>
                    </defs>
                <path fill="url(#sw-gradient)" d="M13.3,-16.2C16.1,-13.4,16.5,-8.2,20.9,-1.1C25.2,6,33.5,15.1,32.5,20.5C31.4,25.9,21.1,27.6,13,26.7C4.9,25.7,-0.9,22,-7.7,20C-14.5,18.1,-22.4,17.7,-29.1,13.3C-35.8,8.9,-41.4,0.3,-39.5,-6.4C-37.6,-13,-28.2,-17.7,-20.4,-19.6C-12.6,-21.5,-6.3,-20.6,-0.5,-20C5.2,-19.4,10.4,-19,13.3,-16.2Z" width="100%" height="100%" transform="translate(50 50)" style="transition: all 0.3s ease 0s;" stroke-width="0"></path>
              </svg>