<!--?xml version="1.0" standalone="no"?-->
              <svg id="sw-js-blob-svg" viewBox="0 0 100 100" xmlns="http://www.w3.org/2000/svg" version="1.1">
                    <defs> 
                        <linearGradient id="sw-gradient" x1="0" x2="1" y1="1" y2="0">
                            <stop id="stop1" stop-color="rgba(251, 188, 5, 1)" offset="0%"></stop>
                            <stop id="stop2" stop-color="rgba(255, 221.61, 124.62, 1)" offset="100%"></stop>
                        </linearGradient>
                    </defs>
                <path fill="url(#sw-gradient)" d="M19.6,-26.3C23.1,-20.4,22,-12,21.9,-5C21.7,2,22.5,7.7,21.3,14.8C20.2,21.8,17.1,30.3,12.5,30.1C7.9,29.9,1.8,21,-7.8,18.7C-17.3,16.4,-30.2,20.6,-34.9,17.6C-39.6,14.6,-36.2,4.4,-34.4,-6C-32.5,-16.5,-32.2,-27.2,-26.7,-32.7C-21.2,-38.3,-10.6,-38.6,-1.3,-37.1C8,-35.6,16.1,-32.1,19.6,-26.3Z" width="100%" height="100%" transform="translate(50 50)" style="transition: all 0.3s ease 0s;" stroke-width="0"></path>
              </svg>