<svg id="visual" viewBox="0 0 900 300" width="900" height="300" xmlns="http://www.w3.org/2000/svg" xmlns:xlink="http://www.w3.org/1999/xlink" version="1.1"><path d="M0 56L30 52.8C60 49.7 120 43.3 180 44C240 44.7 300 52.3 360 57.5C420 62.7 480 65.3 540 62C600 58.7 660 49.3 720 45.8C780 42.3 840 44.7 870 45.8L900 47L900 0L870 0C840 0 780 0 720 0C660 0 600 0 540 0C480 0 420 0 360 0C300 0 240 0 180 0C120 0 60 0 30 0L0 0Z" fill="#34a853"></path><path d="M0 37L30 33.5C60 30 120 23 180 20.8C240 18.7 300 21.3 360 25.7C420 30 480 36 540 34.5C600 33 660 24 720 19.8C780 15.7 840 16.3 870 16.7L900 17L900 0L870 0C840 0 780 0 720 0C660 0 600 0 540 0C480 0 420 0 360 0C300 0 240 0 180 0C120 0 60 0 30 0L0 0Z" fill="#fbbc05"></path></svg>